<?xml version="1.0" encoding="utf-8"?>
<!-- Generator: Adobe Illustrator 26.0.3, SVG Export Plug-In . SVG Version: 6.00 Build 0)  -->
<svg version="1.1" id="Слой_1" xmlns="http://www.w3.org/2000/svg" xmlns:xlink="http://www.w3.org/1999/xlink" x="0px" y="0px"
	 viewBox="0 0 512 512" style="enable-background:new 0 0 512 512;" xml:space="preserve">
<g>
	<path class="st0" d="M351.3,194c-0.5-0.8-0.6-0.7-0.6,0.2c0,0.8,0.4,1.3,1.3,1.4c0.1,0,0.5-0.2,0.9-0.4c0.6-0.4,0.5-0.4-0.2-0.4
		C352.3,194.7,351.6,194.4,351.3,194z"/>
	<path class="st0" d="M277,193c0.4,0.5,0.7,0.5,1.6,0c0.4-0.2,0.5-0.5,0.4-0.7C278.5,191.8,276.7,192.5,277,193z"/>
	<path class="st0" d="M385.1,223.3c-0.6-0.4-1.4-0.8-1.7-0.6c-0.8,0.3,0.6,1.4,1.9,1.4C386,224.1,386,224,385.1,223.3z"/>
	<path class="st0" d="M347.2,185.6c-0.4,0.1-1.9,0-3.3-0.4c-2.4-0.7-2.5-0.7-4.3,0.3c-1.6,0.8-2.3,0.9-5.1,0.7
		c-2.1-0.1-3.4,0-3.7,0.3c-0.4,0.4-0.8,0.2-1.8-0.5c-1.2-0.8-1.8-1-5.7-0.9l-4.4,0l7.5,1.5c4.1,0.8,7.6,1.6,7.8,1.7
		c0.5,0.5-1.7,0.3-9.7-0.8c-4.3-0.6-8.4-1.1-9.1-1.1c-0.7,0,0.3,0.3,2.4,0.6c5.5,0.8,9.9,1.9,11.9,2.9c2.2,1,1.8,1,4.8,0.4
		c2.2-0.4,2.5-0.7,2.6-1.7c0.1-1.1,0.3-1.2,2.6-1.2c1.3,0,3.7,0.2,5.3,0.4c2.8,0.3,2.3-0.1-1-0.8c-0.7-0.1-1.2-0.4-1.2-0.7
		c0-0.3,1-0.4,2.9-0.1c2.2,0.2,2.9,0.2,2.7-0.2C348.1,185.6,347.6,185.5,347.2,185.6z"/>
	<path class="st0" d="M256,0C114.6,0,0,114.6,0,256s114.6,256,256,256s256-114.6,256-256S397.4,0,256,0z M122.2,93.7
		c0.6,1.2,3.3,3.7,5.7,5.4c1,0.7,2.4,2,3,2.8c0.6,0.8,1.3,1.5,1.6,1.5c0.2,0,1.6,0.9,3.1,2c2.9,2.2,9.1,5.7,9.8,5.4
		c0.3-0.1-0.4-0.8-1.4-1.4c-2-1.4-5-4.9-9.8-11.6l-3.2-4.4v2.4c0,2.1-0.1,2.3-0.6,1.6c-0.4-0.4-1.3-2.7-2.1-5
		c-1.1-3.1-2-4.8-3.4-6.5c-2.2-2.6-3-3.9-2.6-4.3c0.4-0.4,3.4,2.7,4.2,4.4c0.4,0.9,1.4,2.4,2.2,3.3l1.4,1.8v-1.5
		c0-1.9,0.5-1.8,5.3,0.5c7.2,3.6,12.3,5.3,17,5.5c2.6,0.1,6.2,0.7,9.4,1.5c6.7,1.7,13.9,2.9,21.4,3.7c6.1,0.6,12.4,0.7,13.2,0.2
		c0.2-0.1,3.3-0.1,6.9,0.1c12,0.8,16.2,0.9,15.9,0.7c-0.2-0.2-23.7-2-26.3-2c-1.1,0-1.2-0.1-0.8-0.6c0.4-0.5,2.5-0.6,10.4-0.4
		c6.5,0.1,10.5,0,11.5-0.3c1.5-0.5,8.4-1.1,20.4-1.9c4.4-0.3,7.3-0.7,9-1.3c2.2-0.8,7.5-1.8,15.7-3.2c5.1-0.8,6.4-1.2,8.2-2.6
		c1.6-1.2,2.4-1.4,4.2-1.4c1.2,0,3.2-0.2,4.3-0.4c1.3-0.3,6.7-0.1,15.6,0.4c7.8,0.5,14.9,0.7,16.7,0.5c5-0.5,21,0.3,28.4,1.3
		c5.3,0.8,7.8,1.4,11.4,2.8c2.6,1,6,2.2,7.6,2.8c5.4,1.9,9.7,4.3,14,8.3c1,0.9,1.9,1.8,2.9,2.8c4.5,4.8,5.4,6.7,9.2,19.2
		c2.9,9.5,3,10,3.3,16.5c0.5,9.7-0.2,12-5,16.3c-1.2,1-2.1,2.2-2.1,2.7c0,2.5-2.9,5-4.1,3.7c-0.1-0.1-0.1-1.6,0-3.3
		c0.3-3.3-0.4-5.3-2.8-7.8c-1.5-1.5-9.4-5.5-14.7-7.4c-11.8-4.2-43.4-7.4-86.8-9c-26.8-0.9-38.8-1.6-43.3-2.5
		c-1.7-0.3-3.8-0.5-4.5-0.4c-0.8,0.1-1.6,0-1.7-0.3c-0.2-0.3-1.5-0.4-3.8-0.2c-2.5,0.2-3.6,0.1-3.6-0.3c0-0.3-0.7-0.5-1.7-0.5
		c-2,0-2.8-0.7-1.4-1.2c0.7-0.2-1-0.7-5.4-1.3c-7.5-1.2-7-1.2-7-0.3c0,0.4-0.2,0.7-0.4,0.7c-0.2,0-0.4-0.2-0.4-0.5
		c0-0.4-0.2-0.4-0.7,0c-0.8,0.7-2,0.3-2-0.7c0-0.8-1.1-1.3-5.1-2c-1.7-0.3-3.6-0.6-4.1-0.8c-0.6-0.1-1,0-1,0.3
		c0,0.2,0.5,0.4,1.2,0.4c1.9,0,3.2,0.5,3.2,1.2c0,0.5-0.4,0.6-2.3,0.4c-4.2-0.6-6.4-1.3-6.5-2.1c-0.1-0.5,0.1-0.8,0.7-0.8
		c0.7,0,0.7-0.1,0.1-0.4c-0.4-0.2-1.1-0.4-1.5-0.4c-0.5,0-1.2-0.3-1.6-0.6c-0.4-0.4-4.7-1.9-9.6-3.4c-23.1-7.2-31.8-11.7-40.2-20.8
		c-2.8-2.9-6.3-7.7-6.3-8.4S121.8,92.9,122.2,93.7z M257.1,172.3c-1.6,1.5-2.9,1.9-5.1,1.9l-2.1,0l1.3-1.1c1.3-1.1,2.9-1.7,5.5-2.2
		C258.3,170.7,258.5,171.1,257.1,172.3z M424.5,255.6c-0.4,0.7-1.2,4.2-1.8,7.8c-1.3,7.3-1.6,7.8-5.7,9.8c-2.5,1.3-2.8,1.6-5.3,5.3
		c-2,3.1-1.7,4.3,1.8,6.7c2.4,1.6-0.3,1.3-4.2-0.5c-2-0.9-3.5-0.7-6.1,1.1c-1.8,1.2-2.6,1.4-6.8,1.8l-2.9,0.2l-5.7-3.8
		c-3.3-2.2-6.1-3.8-6.8-3.8c-0.6,0-3.8-1.5-7.2-3.4c-3.3-1.9-6.8-3.7-7.7-4.2c-1.3-0.7-24.3-7.1-25.3-7.1c-0.2,0,0.7,2.8,2,6.1
		c3.9,9.9,6.4,18.9,7.7,27.9c1.8,12.6,4.6,28.8,5.4,31.1c2.4,6.9,6.4,13.4,17.8,28.1c10.7,13.9,23.5,31.2,24.5,33.2
		c1.5,2.9,4.5,14.3,4.5,17.1c0,0.5-0.6,1.1-1.7,1.5c-1.8,0.7-2.3,1.6-2.3,4.8c0,2-2,4.8-6.1,8.8c-3.1,3-3.8,3.4-5.7,3.7
		c-3.4,0.6-9.6,0.4-11.8-0.2c-4.8-1.4-5.1-1.6-5.9-3.4c-0.5-1-1.6-2.7-2.5-3.8c-0.9-1.1-2.5-3.3-3.7-4.9c-2.8-4-5.7-6.5-9.2-8.1
		c-2.9-1.3-7.7-4.4-12.6-8.2c-3.7-2.9-6.6-6.3-8.9-10.4c-1.1-2-3.1-5.3-4.4-7.1c-3.2-4.6-4.8-8-6.2-13.2c-1.1-4.1-1.2-5.1-1.3-14.4
		c-0.1-5.5-0.3-20-0.5-32.3c-0.5-23.4-0.5-24.1-2.9-33.4c-1.2-4.5-8-26.9-8.4-27.2c-0.1-0.1-2.7-0.4-5.8-0.7
		c-4.8-0.4-6.4-0.4-10.9,0.3c-3.8,0.6-6.5,0.7-9.8,0.4c-3.7-0.2-4.6-0.2-4.6,0.3c0,2,1.6,9.2,3.4,14.7c2.1,6.6,9,39.6,10.9,51.5
		c1.1,7.3,1.2,18.9,0.2,28.5c-0.8,7.8-1.7,11.7-4.2,17.8c-1.6,4-2.1,4.8-4.7,7.2c-2.9,2.8-3.8,4.2-3.8,6.4c0,1.5-3.3,6.2-5.2,7.4
		c-0.7,0.4-2,1.8-2.8,3.2c-0.8,1.3-2,2.6-2.4,2.9s-1.7,1.2-2.7,2.2c-2.5,2.3-4.7,3.1-9,3.4c-6.6,0.4-7,0.1-15.1-7.9
		c-4.5-4.4-8.5-7.9-10.7-9.4c-2.9-1.9-3.8-2.9-4.3-4.1c-0.8-2-6-6.5-9.5-8.3c-1.5-0.8-2.8-1.7-3.1-2.4c-0.3-0.6-1.6-2-3.1-3
		s-2.9-2.6-3.4-3.5c-0.5-0.8-1.3-1.9-1.9-2.4s-1.5-1.6-2-2.6c-0.6-1-1.5-2.1-2.1-2.5c-0.9-0.6-1-1-0.8-2.2c0.1-0.9,0-1.8-0.4-2.4
		c-0.6-0.8-0.6-0.9,0.2-0.9c0.5,0,0.9-0.1,0.9-0.3c0-0.1-1.7-2.3-3.8-4.9s-3.8-4.7-3.8-4.9s2.8,1.1,6.1,2.8
		c3.3,1.6,9.9,4.5,14.6,6.4c4.7,1.9,10.9,4.4,13.8,5.7c5.9,2.6,7.9,2.9,9.9,1.5c2.7-2,2.9-2.7,3.3-19.4c0.4-16.8,0.8-21.5,2.5-36.7
		c1-8.9,1.2-12.1,1.2-24.1c0-7.7-0.1-14-0.2-14.2c-0.4-0.4-11,0.7-14.1,1.4c-1.6,0.4-4.7,1.2-6.9,2c-2.2,0.7-6.4,1.8-9.4,2.4
		c-2.9,0.6-6.8,1.4-8.5,1.7c-1.7,0.4-7,1.1-11.8,1.6l-8.6,1l-1.8,1.7c-1,0.9-3,2.4-4.6,3.3c-3,1.7-3.3,2.2-4.1,5.9
		c-1.5,7.4-0.6,16.9,2.4,27c1.8,5.9,2.5,7.5,5.5,12c5.1,7.9,6.7,13.1,7.1,23.2c0.2,5.7,0.3,6.4,1.5,8.5c0.7,1.2,1.3,2.8,1.5,3.4
		c0.4,1.5-1.2,7.6-2.5,9.9c-0.6,1-1.2,2.4-1.3,3.1c-0.4,1.9-4,5.2-8.5,7.8c-3.1,1.9-5.6,3.9-11,9.4c-3.9,3.8-8.6,8.8-10.5,11
		c-6,7.1-17.2,18.4-18.4,18.7c-0.7,0.2-2,0.9-3.1,1.7c-2.9,2.2-4.7,3-7.4,3.3c-1.4,0.1-3.3,0.5-4.2,0.8c-2.4,0.9-5.2,0.8-6.7-0.2
		l-1.3-0.9l-3.2,1.8c-3.3,1.8-4.2,2-4.9,1.3c-0.3-0.2-1.7-0.8-3.3-1.4c-1.6-0.5-2.9-1.2-3.1-1.6c-0.1-0.4,1.1-1.8,3-3.6
		c5.7-5.1,10.2-10,12.7-13.7c1.3-2,3.6-4.9,5.1-6.7c8.5-9.5,19.8-26.6,29.2-44.3c6.1-11.4,6.5-12.6,7-21.2c0.7-11,0.2-25.2-1.4-40.1
		c-0.8-7.1-1.4-13.1-1.4-13.3c0-0.6-1.2-0.1-11.1,4.3c-6.3,2.8-9.6,4.5-10.8,5.6c-0.9,0.9-3.5,2.5-5.7,3.7c-4.8,2.5-6,2.6-13.7,1
		c-7.2-1.5-10.3-3.3-17.7-9.7c-1.7-1.5-3-2.9-3-3.2c0-0.5-3-5.1-7.3-11.1l-2.1-3l0.8-2.9c0.6-2.3,0.8-4.1,0.6-8.8
		c-0.2-3.9-0.1-6.3,0.3-6.8c0.3-0.4,0.4-1.9,0.3-3.2l-0.1-2.3l2.6-1.2c1.5-0.7,3.3-1.2,4.4-1.2c1.2,0,2.1-0.3,2.9-1
		c3.2-2.9,5.6-3.6,8-2.4c1.1,0.5,1.1,0.7,0.9,4.8c-0.2,4.9-0.1,4.9,3.7,5.7c3.7,0.8,8.6,0.3,21.3-2c11.8-2.1,28.1-4.7,29.9-4.7
		c0.8,0,1.6-0.6,2.9-2.4c1-1.3,2.8-3.3,4.1-4.5l2.4-2.1l4,0.3c7.1,0.5,15.5,1.6,18.1,2.5c2.5,0.8,2.8,0.8,7.6,0
		c2.8-0.4,7.1-1,9.7-1.3c11.8-1.2,13.4-1.5,13.9-2.1c0.3-0.4,0.8-0.5,1.2-0.2c0.5,0.3,1.1,0.2,1.9-0.2c4.2-2.5,4.9-2.6,11.5-2.7
		c3.7,0,7.9-0.4,9.8-0.8c8.8-1.8,35.1-5.1,47.5-5.9l4.5-0.3L301,225c-0.9-1.6-0.8-2.2,0.1-2.1c0.4,0,2,0,3.7,0l2.9-0.1l2.4-3.3
		c1.3-1.7,2.6-3.6,3-4.1c0.6-0.8,0.7-0.8,3.3,1.7c1.5,1.5,3.1,3.6,3.7,4.8l1,2.2l6.5-0.2c9.5-0.3,35-0.8,38.1-0.7
		c1.5,0,4.9,0.4,7.7,0.7s5.9,0.7,7,0.7c2.4,0,2.5,0.2-1.9-5.7c-3-4.1-7-7.7-9.8-8.9c-0.8-0.3-2.1-1.1-2.8-1.7
		c-0.7-0.6-4.2-2-8.2-3.4c-3.9-1.3-7.5-2.8-8.2-3.4c-0.7-0.6-1.6-1.1-1.9-1.1c-0.4,0-2.5-0.4-4.7-0.9c-3.4-0.8-4.1-1.1-4.1-1.8
		c0-1.6,4-0.9,13.1,2.2c3.8,1.3,5.2,1.6,5.2,1.2c0-0.4-2.4-1.4-6.5-2.8c-3.8-1.2-6.5-2.4-6.5-2.7s0.4-0.6,0.8-0.6
		c1.1,0,0.4-0.5-1.3-0.8c-1-0.2-1.4-0.5-1.3-1.1c0.1-0.4-0.1-0.8-0.4-0.8c-0.3,0-0.4-0.3-0.2-0.7c0.1-0.4,0.1-0.7-0.1-0.7
		c-0.6,0-2,1.8-3.8,4.7c-0.9,1.5-1.9,2.9-2.2,2.9c-0.3,0.1-1.9,0-3.7-0.1c-1.7-0.2-3.6-0.4-4.1-0.4c-0.7,0-1-0.3-1-0.8
		c0-0.8-0.7-0.9-5.8-1.4c-4.2-0.4-6-0.4-6.3-0.1c-0.7,0.7-1.2,0.6-1.2-0.1c0-0.4-0.7-0.7-2.3-0.9c-3-0.3-14.7-1.2-17.2-1.4
		c-1-0.1-2-0.3-2.3-0.4c-0.7-0.4-1.5,0.1-1.2,0.8c0.1,0.3-0.1,0.7-0.4,0.8c-1,0.4-1,0.4-1.2-1c-0.1-1.2-0.2-1.2-3.8-1.3
		c-2.4-0.1-3.7,0-3.7,0.4c0,0.2,0.4,0.4,0.8,0.4c0.4,0,1.5,0.4,2.3,1c0.8,0.5,2.3,1,3.1,1.1c0.8,0,1.8,0.1,2.1,0.1
		c0.3,0,0.5,0.3,0.5,0.5s-0.7,0.4-1.6,0.4s-2.9,0-4.4,0l-2.7,0.1l1.8,0.4c1,0.3,2.2,1,2.8,1.7l1,1.3l-2.5,0.5
		c-1.4,0.3-2.9,0.7-3.2,0.8c-0.5,0.2-0.6-0.2-0.3-2.3l0.3-2.6l-1.6,0.3c-0.9,0.2-2.1,0.7-2.7,1.1c-0.8,0.6-1.7,0.8-4.2,0.7l-3.2-0.1
		l-0.4-1.5c-0.6-2.3-0.9-2.4-2.3-0.6c-0.7,0.8-1.5,1.6-1.9,1.6c-0.5,0-0.6,0.3-0.4,0.9c0.2,0.6,0.1,0.9-0.3,0.9
		c-0.3,0-7.4,0.1-15.6,0.2c-8.3,0.1-16.1,0.4-17.4,0.7c-1.3,0.2-2.9,0.5-3.7,0.6c-0.7,0,0,0.2,1.6,0.2c1.6,0,3.3,0.2,3.7,0.3
		c2,0.8,0,1.1-6.6,1.1c-7.4,0-8.8,0.3-7.2,1.5c0.7,0.5,0.4,0.6-2,0.8c-1.6,0.2-3.7,0.3-4.9,0.3c-1.7,0-1.9,0.1-1.2,0.5
		c0.5,0.3,1.8,0.4,3.2,0.2c2.4-0.3,3.1,0.2,1.6,1c-0.4,0.2-3,0.5-5.7,0.6c-4.9,0.3-9.9,1.4-11,2.5c-0.3,0.3-1.6,0.5-3,0.5
		c-1.3,0-3.2,0.2-4,0.4c-0.8,0.3-4,0.7-6.9,0.9c-3.5,0.3-6,0.7-7.1,1.3c-1.6,0.8-2.7,0.8-14.9,0.6c-12.7-0.2-17.9-0.5-21.6-1.5
		c-1-0.3-3.7-0.9-6-1.4c-6.7-1.5-18.8-8.1-23.7-12.9c-4.6-4.5-5.2-6-7.4-18.5c-1-6-1.1-7.5-0.9-14.7c0.2-9.2,0.8-11.8,4.1-18.8
		c6.7-14.2,16.7-20.7,27.2-17.6c4.6,1.3,9.6,2.3,11.6,2.3c3.2,0,9.6,1,10.1,1.6c0.9,1.1-1,1.4-9.1,1.6c-9,0.3-11,0.6-15.6,2.9
		c-3.3,1.6-5.2,3.7-6.7,7.2l-0.7,1.7l2,1.8c3.8,3.4,10.5,6.8,17.7,8.8c2.1,0.6,8.3,1.7,13.8,2.5c5.5,0.8,10.4,1.6,10.9,1.9
		c0.5,0.3,1.4,0.6,2,0.7s3.1,0.4,5.5,0.7c4.5,0.5,6.2,1.6,2,1.1c-1.9-0.2-2.2-0.1-1.3,0.2c0.7,0.4,1.9,0.4,4.1,0
		c3.1-0.5,5.4-0.3,5.4,0.4c0,0.2-0.3,0.4-0.8,0.4c-0.4,0-0.6,0.1-0.5,0.2c0.1,0.2,2.1,0.4,4.4,0.7c11.6,1.2,39.4,4,40,4
		c0.4,0,1,0.2,1.4,0.4c0.6,0.4,0.6,0.5-0.1,1.1c-0.7,0.5-0.5,0.6,1.6,1.1c2,0.4,2.4,0.3,2.9-0.3c0.4-0.6,1.6-0.7,7-0.7
		c6.3,0,6.5,0,6.9,0.9c0.4,0.9,0.3,1-1.8,1.4c-1.2,0.3-2.6,0.5-3,0.5c-2.6,0.2,11.8,1.7,16.8,1.7c2,0,6.4,0.4,9.6,0.9
		c5,0.8,7.7,0.9,17.5,0.9c6.4,0,14.2,0.1,17.4,0.4c4,0.4,6.5,0.4,8.2,0c1.5-0.3,2.5-0.3,2.7,0c0.1,0.2,2.5,0.8,5.3,1.3
		c2.8,0.5,6.3,1.3,7.8,1.7c2.9,0.9,11.9,2.5,18.5,3.1c2.3,0.3,6.3,1,8.9,1.7c2.6,0.8,6.2,1.6,8,2c5.8,1.2,16.3,5.2,17.2,6.5
		c0.1,0.3,1.7,1.2,3.5,2.1c8.2,4.3,13.2,12.9,14.5,25.1c0.3,2.6,0.3,4,0,4.4c-0.6,0.7-0.7,0.7,2.9,1.6c3.6,0.8,7.2,2.8,6.8,3.7
		c-0.1,0.4-0.4,0.9-0.5,1.2c-0.4,0.9,2.6,4.1,4.5,4.7c1,0.4,2.4,1.1,3.2,1.6c1.3,0.8,1.5,1.2,1.5,2.9c0,1.6,0.4,2.6,1.8,4.7
		c1,1.5,2.5,3.4,3.3,4.2C425.3,252.1,425.5,253.5,424.5,255.6z M291.9,197.9c0-1.1,0.6-1.8,1.5-1.8c1,0,1.6,0.3,2.5,1.5
		c0.5,0.7,0.4,0.8-1.7,0.8C292.9,198.3,291.9,198.1,291.9,197.9z"/>
</g>
</svg>
